<?xml version="1.0" standalone="no"?>
<!DOCTYPE svg PUBLIC "-//W3C//DTD SVG 20010904//EN"
 "http://www.w3.org/TR/2001/REC-SVG-20010904/DTD/svg10.dtd">
<svg version="1.0" xmlns="http://www.w3.org/2000/svg"
 width="736.000000pt" height="736.000000pt" viewBox="0 0 736.000000 736.000000"
 preserveAspectRatio="xMidYMid meet">
<metadata>
Created by potrace 1.16, written by Peter Selinger 2001-2019
</metadata>
<g transform="translate(0.000000,736.000000) scale(0.100000,-0.100000)"
fill="#000000" stroke="none">
<path d="M4349 5779 c-78 -11 -189 -51 -258 -93 -49 -30 -368 -299 -441 -373
l-25 -25 25 12 c17 8 22 9 14 1 -6 -6 -20 -13 -32 -16 -27 -5 -142 -103 -142
-120 0 -7 6 -17 13 -22 16 -13 666 -16 782 -4 50 5 112 17 139 26 55 19 184
96 237 141 132 114 256 254 243 275 -4 7 -3 9 3 6 12 -7 107 149 107 178 1 20
-4 20 -304 21 -168 1 -330 -2 -361 -7z"/>
<path d="M4821 5323 c-6 -10 -11 -14 -11 -10 0 5 -23 -11 -50 -36 -51 -46
-176 -132 -208 -144 -9 -4 -30 -14 -45 -24 l-29 -17 87 -48 c47 -27 122 -78
167 -114 45 -36 87 -69 93 -74 27 -20 201 130 242 207 13 26 12 31 -11 71 -27
46 -143 159 -194 189 -29 17 -31 17 -41 0z"/>
<path d="M3029 5110 c-162 -16 -293 -77 -405 -189 -79 -78 -124 -152 -159
-255 -53 -158 -42 -343 31 -489 63 -127 38 -103 639 -627 905 -788 960 -838
985 -881 22 -38 25 -56 25 -134 0 -103 -15 -143 -77 -208 -42 -44 -46 -58 -23
-77 21 -18 319 -7 395 14 30 8 93 34 139 57 312 158 440 553 281 868 -49 99
-85 141 -222 260 -62 54 -279 244 -483 421 -203 177 -395 344 -425 370 -514
444 -520 451 -520 580 0 85 22 148 71 203 46 52 49 74 13 87 -28 11 -150 11
-265 0z"/>
<path d="M3497 5043 c-18 -17 0 -43 69 -102 42 -35 82 -64 89 -64 8 0 12 -4
10 -8 -8 -11 65 -70 77 -63 6 4 8 3 4 -4 -3 -6 23 -36 60 -69 37 -32 97 -84
133 -116 89 -79 164 -130 239 -161 122 -51 161 -56 516 -56 l328 0 -6 25 c-10
41 -104 193 -164 264 -146 175 -328 307 -479 346 -46 12 -136 15 -463 15 -224
0 -410 -3 -413 -7z"/>
<path d="M2350 2962 c-6 -2 -10 -11 -10 -20 0 -21 86 -166 142 -241 63 -84
197 -213 280 -269 182 -123 183 -123 690 -120 500 4 476 -6 318 128 -35 30
-139 121 -230 201 -209 184 -250 215 -330 252 -128 59 -138 60 -508 66 -188 3
-347 5 -352 3z"/>
<path d="M2459 2471 c-71 -53 -143 -129 -167 -178 -15 -31 -14 -34 11 -72 44
-66 193 -201 222 -201 4 0 32 23 63 51 68 60 143 111 236 160 l69 37 -64 32
c-80 41 -164 98 -244 165 l-62 53 -64 -47z"/>
<path d="M3021 2219 c-212 -36 -480 -262 -637 -536 -71 -125 -100 -115 304
-111 330 4 350 5 417 27 120 40 194 86 341 213 426 370 425 369 422 392 l-3
21 -395 1 c-217 1 -419 -2 -449 -7z"/>
</g>
</svg>
